<svg xmlns="http://www.w3.org/2000/svg" width="1838" height="268" fill="none" viewBox="0 0 1838 268"><path fill="#23120B" d="M32.32 53.36V193.04L55.36 201.68V206H0.64V201.68L23.68 193.04V14.48L3.52 8.71998V4.39999H33.76C43.936 4.39999 51.904 6.22399 57.664 9.87198C63.424 13.52 68.896 18.416 74.08 24.56L166.24 132.56V17.36L143.2 8.71998V4.39999H197.92V8.71998L174.88 17.36V210.32H166.24L32.32 53.36ZM290.148 210.32C276.516 210.32 263.748 207.248 251.844 201.104C246.468 198.416 241.956 195.248 238.308 191.6C235.62 196.016 232.26 199.952 228.228 203.408C224.772 205.904 222.852 207.248 222.468 207.44H215.268V152.72H226.788C229.668 162.128 233.7 170.576 238.884 178.064C250.596 194.768 265.764 203.12 284.388 203.12C295.332 203.12 304.068 199.856 310.596 193.328C317.124 186.8 320.388 178.064 320.388 167.12C320.388 160.784 318.468 155.12 314.628 150.128C310.98 145.136 306.372 140.72 300.804 136.88C295.236 133.04 287.46 128.24 277.476 122.48C264.804 115.376 254.532 108.944 246.66 103.184C238.788 97.424 232.068 90.224 226.5 81.584C220.932 72.752 218.148 62.384 218.148 50.48C218.148 41.072 220.74 32.624 225.924 25.136C231.3 17.456 239.268 11.408 249.828 6.99199C260.388 2.38399 273.348 0.0799904 288.708 0.0799904C299.844 0.0799904 310.98 3.24799 322.116 9.58399C326.34 11.888 330.564 14.96 334.788 18.8C338.052 13.808 341.412 9.87198 344.868 6.99199C348.324 4.49599 350.244 3.15199 350.627 2.95999H357.828V57.68H346.308C343.812 48.464 340.068 40.112 335.076 32.624C330.468 25.328 324.708 19.28 317.796 14.48C311.076 9.67999 303.3 7.27998 294.468 7.27998C286.98 7.27998 280.548 10.256 275.172 16.208C269.796 22.16 267.108 29.744 267.108 38.96C267.108 46.064 269.124 52.496 273.156 58.256C277.38 63.824 282.468 68.72 288.42 72.944C294.564 77.168 302.82 82.256 313.188 88.208C325.284 95.12 335.076 101.264 342.564 106.64C350.052 112.016 356.388 118.736 361.572 126.8C366.756 134.672 369.348 143.792 369.348 154.16C369.348 164.528 366.372 174.032 360.42 182.672C354.468 191.12 345.54 197.84 333.636 202.832C321.732 207.824 307.236 210.32 290.148 210.32ZM490.229 210.32C461.813 210.32 440.309 203.696 425.717 190.448C411.125 177.008 403.829 158.192 403.829 134V13.04L386.549 8.71998V4.39999H468.629V8.71998L451.349 13.04V134C451.349 158.768 455.189 176.528 462.869 187.28C470.549 197.84 481.589 203.12 495.989 203.12C504.821 203.12 513.173 200.336 521.045 194.768C529.109 189.008 535.541 180.944 540.341 170.576C545.333 160.016 547.829 147.824 547.829 134V17.36L524.789 8.71998V4.39999H579.509V8.71998L556.469 17.36V134C556.469 149.552 553.589 163.088 547.829 174.608C542.069 186.128 534.197 194.96 524.213 201.104C514.229 207.248 502.901 210.32 490.229 210.32ZM670.218 210.32C645.642 210.32 626.538 203.6 612.906 190.16C599.274 176.528 592.458 157.808 592.458 134C592.458 118.448 595.434 104.912 601.386 93.392C607.338 81.872 615.594 73.04 626.154 66.896C636.906 60.752 649.194 57.68 663.018 57.68C676.842 57.68 688.938 60.272 699.306 65.456C709.866 70.64 717.93 77.648 723.498 86.48C729.258 95.12 732.138 104.72 732.138 115.28C732.138 120.08 731.658 124.208 730.698 127.664L729.258 132.56C721.002 134.288 712.074 135.728 702.474 136.88C682.314 139.76 661.962 141.2 641.418 141.2C641.418 163.472 644.49 179.408 650.634 189.008C656.778 198.416 665.226 203.12 675.978 203.12C683.466 203.12 690.378 201.392 696.714 197.936C703.242 194.288 708.33 189.584 711.978 183.824C715.818 177.872 717.738 171.824 717.738 165.68H724.938C724.938 173.36 722.634 180.656 718.026 187.568C713.418 194.48 706.986 200.048 698.73 204.272C690.474 208.304 680.97 210.32 670.218 210.32ZM641.418 134C653.706 134 663.69 133.52 671.37 132.56C674.634 132.368 678.09 131.888 681.738 131.12C681.93 130.16 682.41 128.048 683.178 124.784C684.138 119.984 684.618 114.896 684.618 109.52C684.618 93.584 682.506 81.968 678.282 74.672C674.058 67.184 668.97 63.44 663.018 63.44C648.618 63.44 641.418 86.96 641.418 134ZM753.614 201.68L770.894 197.36V70.64L753.614 66.32V62H779.534C790.862 62 799.79 65.648 806.318 72.944C808.814 75.824 810.926 79.376 812.654 83.6C815.534 79.376 819.086 75.536 823.31 72.08C832.91 64.4 843.662 60.56 855.566 60.56C865.742 60.56 873.326 62.96 878.318 67.76C883.502 72.368 886.094 79.088 886.094 87.92C886.094 94.448 884.078 99.728 880.046 103.76C876.206 107.6 871.022 109.52 864.494 109.52C861.806 109.52 859.118 109.328 856.43 108.944L852.974 108.08V67.76C843.182 67.76 834.254 71.6 826.19 79.28C822.35 83.12 819.278 86.96 816.974 90.8V197.36L834.254 201.68V206H753.614V201.68ZM907.66 72.08C911.692 70.736 915.724 68.528 919.756 65.456C928.012 59.312 933.1 50.96 935.02 40.4L931.276 42.704C928.78 44.048 925.708 44.72 922.06 44.72C916.3 44.72 911.212 42.608 906.796 38.384C902.572 33.968 900.46 28.88 900.46 23.12C900.46 17.36 902.572 12.368 906.796 8.14399C911.212 3.72799 916.3 1.51999 922.06 1.51999C928.78 1.51999 934.252 3.91999 938.476 8.71998C942.892 13.328 945.1 19.568 945.1 27.44C945.1 45.104 939.34 58.928 927.82 68.912C922.828 73.52 917.068 76.976 910.54 79.28L907.66 72.08ZM1037.29 210.32C1025.39 210.32 1014.73 207.728 1005.33 202.544C1000.72 200.048 996.974 197.36 994.094 194.48C991.022 198.704 987.662 201.968 984.014 204.272C982.286 205.424 980.366 206.48 978.254 207.44H971.054V158.48H982.574C985.07 166.544 988.718 174.032 993.518 180.944C1003.69 195.728 1016.37 203.12 1031.53 203.12C1039.6 203.12 1045.65 201.2 1049.68 197.36C1053.9 193.328 1056.01 187.568 1056.01 180.08C1056.01 173.744 1053.13 168.464 1047.37 164.24C1041.81 159.824 1032.97 154.448 1020.88 148.112C1010.51 142.928 1002.06 138.32 995.534 134.288C989.198 130.064 983.726 124.88 979.118 118.736C974.702 112.4 972.494 105.008 972.494 96.56C972.494 85.04 977.39 75.728 987.182 68.624C997.166 61.328 1012.43 57.68 1032.97 57.68C1043.15 57.68 1052.56 60.368 1061.2 65.744C1065.42 68.24 1069.07 70.832 1072.14 73.52C1074.64 70.064 1078 66.8 1082.22 63.728C1085.49 61.808 1087.41 60.752 1087.98 60.56H1095.18V109.52H1083.66C1080.78 101.264 1077.23 93.872 1073.01 87.344C1063.41 72.368 1051.98 64.88 1038.73 64.88C1033.55 64.88 1029.13 66.8 1025.49 70.64C1021.84 74.48 1020.01 79.28 1020.01 85.04C1020.01 92.336 1023.09 98.48 1029.23 103.472C1035.37 108.272 1044.69 113.84 1057.17 120.176C1067.34 125.36 1075.41 129.968 1081.36 134C1087.5 137.84 1092.69 142.64 1096.91 148.4C1101.33 154.16 1103.53 160.88 1103.53 168.56C1103.53 196.4 1081.45 210.32 1037.29 210.32ZM1208.74 201.68L1226.02 197.36V13.04L1208.74 8.71998V4.39999H1286.5C1315.69 4.39999 1337.1 9.10399 1350.73 18.512C1364.55 27.728 1371.46 39.824 1371.46 54.8C1371.46 65.168 1368.49 73.52 1362.54 79.856C1356.58 86.192 1349 90.896 1339.78 93.968C1329.99 97.424 1319.43 99.248 1308.1 99.44V100.88C1322.12 101.456 1334.31 103.568 1344.68 107.216C1355.24 110.672 1363.98 116.048 1370.89 123.344C1377.99 130.64 1381.54 139.952 1381.54 151.28C1381.54 168.368 1374.54 181.808 1360.52 191.6C1346.5 201.2 1323.75 206 1292.26 206H1208.74V201.68ZM1286.5 96.56C1292.84 96.56 1298.7 94.832 1304.07 91.376C1309.64 87.728 1314.06 82.736 1317.32 76.4C1320.78 69.872 1322.5 62.672 1322.5 54.8C1322.5 46.352 1320.78 38.864 1317.32 32.336C1314.06 25.808 1309.64 20.72 1304.07 17.072C1298.7 13.424 1292.84 11.6 1286.5 11.6H1273.54V96.56H1286.5ZM1292.26 198.8C1304.17 198.8 1313.86 194.576 1321.35 186.128C1328.84 177.68 1332.58 166.064 1332.58 151.28C1332.58 136.496 1328.84 124.88 1321.35 116.432C1313.86 107.984 1304.17 103.76 1292.26 103.76H1273.54V198.8H1292.26ZM1401.61 201.68L1418.89 197.36V13.04L1401.61 8.71998V4.39999H1439.05C1456.33 4.39999 1464.97 13.04 1464.97 30.32V197.36L1482.25 201.68V206H1401.61V201.68ZM1575.81 210.32C1552 210.32 1533.28 203.6 1519.65 190.16C1506.21 176.528 1499.49 157.808 1499.49 134C1499.49 110.192 1506.21 91.568 1519.65 78.128C1533.28 64.496 1552 57.68 1575.81 57.68C1599.62 57.68 1618.24 64.496 1631.68 78.128C1645.31 91.568 1652.13 110.192 1652.13 134C1652.13 157.808 1645.31 176.528 1631.68 190.16C1618.24 203.6 1599.62 210.32 1575.81 210.32ZM1575.81 204.56C1583.49 204.56 1589.92 199.184 1595.1 188.432C1600.48 177.68 1603.17 159.536 1603.17 134C1603.17 108.464 1600.48 90.32 1595.1 79.568C1589.92 68.816 1583.49 63.44 1575.81 63.44C1568.13 63.44 1561.6 68.816 1556.22 79.568C1551.04 90.32 1548.45 108.464 1548.45 134C1548.45 159.536 1551.04 177.68 1556.22 188.432C1561.6 199.184 1568.13 204.56 1575.81 204.56ZM1742.95 267.92C1725.86 267.92 1711.94 266.384 1701.19 263.312C1690.44 260.24 1682.66 256.304 1677.86 251.504C1673.25 246.704 1670.95 241.616 1670.95 236.24C1670.95 229.712 1672.87 224.432 1676.71 220.4C1680.74 216.56 1686.02 214.64 1692.55 214.64C1694.09 214.64 1696.87 214.928 1700.9 215.504L1704.07 216.08V256.4C1706.37 257.168 1710.02 258.128 1715.01 259.28C1723.85 261.2 1732.2 262.16 1740.07 262.16C1763.49 262.16 1780.58 258.8 1791.33 252.08C1802.28 245.552 1807.75 237.392 1807.75 227.6C1807.75 215.12 1796.23 208.88 1773.19 208.88H1718.47C1704.07 208.88 1693.03 205.904 1685.35 199.952C1677.67 194 1673.83 186.416 1673.83 177.2C1673.83 167.984 1678.34 159.824 1687.37 152.72C1691.01 150.032 1695.62 147.632 1701.19 145.52C1694.09 141.104 1688.9 135.92 1685.64 129.968C1682.57 123.824 1681.03 116.528 1681.03 108.08C1681.03 93.872 1686.41 82.448 1697.16 73.808C1707.91 64.976 1723.65 60.56 1744.39 60.56C1753.41 60.56 1761.67 61.52 1769.16 63.44C1776.84 65.168 1782.98 67.568 1787.59 70.64C1789.13 67.376 1791.14 64.496 1793.64 62C1799.4 56.24 1806.5 53.36 1814.95 53.36C1821.48 53.36 1826.95 55.664 1831.37 60.272C1835.78 64.688 1837.99 70.544 1837.99 77.84C1837.99 83.408 1836.45 87.92 1833.38 91.376C1830.5 94.832 1826.76 96.56 1822.15 96.56C1820.04 96.56 1817.64 96.368 1814.95 95.984L1812.07 95.12V60.56C1807.08 60.56 1802.37 62.96 1797.96 67.76C1796.23 69.488 1794.69 71.888 1793.35 74.96C1802.95 83.408 1807.75 94.448 1807.75 108.08C1807.75 122.288 1802.37 133.808 1791.62 142.64C1780.87 151.28 1765.13 155.6 1744.39 155.6C1730.57 155.6 1718.09 153.2 1706.95 148.4L1701.19 151.28C1699.27 152.432 1697.83 153.584 1696.87 154.736C1695.91 155.696 1695.43 156.944 1695.43 158.48C1695.43 161.744 1697.06 164.24 1700.33 165.968C1703.78 167.696 1709.83 168.56 1718.47 168.56H1773.19C1787.59 168.56 1798.82 172.784 1806.89 181.232C1815.14 189.488 1819.27 201.104 1819.27 216.08C1819.27 231.44 1812.84 243.92 1799.97 253.52C1787.3 263.12 1768.29 267.92 1742.95 267.92ZM1744.39 149.84C1750.73 149.84 1755.62 146.768 1759.08 140.624C1762.73 134.48 1764.55 123.632 1764.55 108.08C1764.55 92.528 1762.73 81.68 1759.08 75.536C1755.62 69.392 1750.73 66.32 1744.39 66.32C1738.05 66.32 1733.06 69.392 1729.41 75.536C1725.96 81.68 1724.23 92.528 1724.23 108.08C1724.23 123.632 1725.96 134.48 1729.41 140.624C1733.06 146.768 1738.05 149.84 1744.39 149.84Z"/></svg>